<mxfile host="app.diagrams.net" agent="Mozilla/5.0 (Windows NT 10.0; Win64; x64) AppleWebKit/537.36 (KHTML, like Gecko) Chrome/126.0.0.0 Safari/537.36 OPR/112.0.0.0" version="24.7.12">
  <diagram name="Page-1" id="3kUfPj6RyceFZPcIKj8r">
    <mxGraphModel dx="2139" dy="1956" grid="1" gridSize="10" guides="1" tooltips="1" connect="1" arrows="1" fold="1" page="1" pageScale="1" pageWidth="850" pageHeight="1100" background="#CCE5FF" math="0" shadow="0">
      <root>
        <mxCell id="0" />
        <mxCell id="1" parent="0" />
        <mxCell id="ISv67wAiZ98y2486Zf-K-17" value="&lt;p style=&quot;margin:0px;margin-top:4px;text-align:center;&quot;&gt;&lt;b&gt;Class&lt;/b&gt;&lt;/p&gt;&lt;hr size=&quot;1&quot; style=&quot;border-style:solid;&quot;&gt;&lt;p style=&quot;margin:0px;margin-left:4px;&quot;&gt;Attributes&lt;/p&gt;&lt;hr size=&quot;1&quot; style=&quot;border-style:solid;&quot;&gt;&lt;p style=&quot;margin:0px;margin-left:4px;&quot;&gt;Methods&lt;/p&gt;" style="verticalAlign=top;align=left;overflow=fill;html=1;whiteSpace=wrap;" vertex="1" parent="1">
          <mxGeometry x="-30" y="-210" width="150" height="80" as="geometry" />
        </mxCell>
        <mxCell id="ISv67wAiZ98y2486Zf-K-18" value="&lt;p style=&quot;margin:0px;margin-top:4px;text-align:center;&quot;&gt;&lt;b&gt;Bruker&lt;/b&gt;&lt;/p&gt;&lt;hr size=&quot;1&quot; style=&quot;border-style:solid;&quot;&gt;&lt;p style=&quot;margin:0px;margin-left:4px;&quot;&gt;&lt;span style=&quot;background-color: initial;&quot;&gt;Navn&lt;/span&gt;&lt;/p&gt;&lt;p style=&quot;margin:0px;margin-left:4px;&quot;&gt;&lt;span style=&quot;background-color: initial;&quot;&gt;Mail&lt;/span&gt;&lt;br&gt;&lt;/p&gt;&lt;p style=&quot;margin:0px;margin-left:4px;&quot;&gt;&lt;span style=&quot;background-color: initial;&quot;&gt;Passord&lt;/span&gt;&lt;/p&gt;&lt;p style=&quot;margin:0px;margin-left:4px;&quot;&gt;BrukerNr&lt;/p&gt;&lt;hr size=&quot;1&quot; style=&quot;border-style:solid;&quot;&gt;&lt;p style=&quot;margin:0px;margin-left:4px;&quot;&gt;Innmelding()&lt;/p&gt;&lt;p style=&quot;margin:0px;margin-left:4px;&quot;&gt;&lt;br&gt;&lt;/p&gt;&lt;p style=&quot;margin:0px;margin-left:4px;&quot;&gt;&lt;br&gt;&lt;/p&gt;" style="verticalAlign=top;align=left;overflow=fill;html=1;whiteSpace=wrap;" vertex="1" parent="1">
          <mxGeometry y="420" width="160" height="120" as="geometry" />
        </mxCell>
        <mxCell id="ISv67wAiZ98y2486Zf-K-19" value="&lt;p style=&quot;margin:0px;margin-top:4px;text-align:center;&quot;&gt;&lt;b&gt;Saksbehandler&lt;/b&gt;&lt;/p&gt;&lt;hr size=&quot;1&quot; style=&quot;border-style:solid;&quot;&gt;&lt;p style=&quot;margin:0px;margin-left:4px;&quot;&gt;Navn på saksbehandler&lt;/p&gt;&lt;p style=&quot;margin:0px;margin-left:4px;&quot;&gt;Tildelte saker&lt;/p&gt;&lt;p style=&quot;margin:0px;margin-left:4px;&quot;&gt;&lt;br&gt;&lt;/p&gt;&lt;hr size=&quot;1&quot; style=&quot;border-style:solid;&quot;&gt;&lt;p style=&quot;margin:0px;margin-left:4px;&quot;&gt;Undersøkelse()&lt;/p&gt;&lt;p style=&quot;margin:0px;margin-left:4px;&quot;&gt;Vis tildelte saker()&lt;/p&gt;&lt;p style=&quot;margin:0px;margin-left:4px;&quot;&gt;Oppdatere sak()&lt;/p&gt;" style="verticalAlign=top;align=left;overflow=fill;html=1;whiteSpace=wrap;" vertex="1" parent="1">
          <mxGeometry x="600" y="470" width="160" height="160" as="geometry" />
        </mxCell>
        <mxCell id="ISv67wAiZ98y2486Zf-K-20" value="&lt;p style=&quot;margin:0px;margin-top:4px;text-align:center;text-decoration:underline;&quot;&gt;&lt;b&gt;Object:Type&lt;/b&gt;&lt;/p&gt;&lt;hr size=&quot;1&quot; style=&quot;border-style:solid;&quot;/&gt;&lt;p style=&quot;margin:0px;margin-left:8px;&quot;&gt;field1 = value1&lt;br/&gt;field2 = value2&lt;br&gt;field3 = value3&lt;/p&gt;" style="verticalAlign=top;align=left;overflow=fill;html=1;whiteSpace=wrap;" vertex="1" parent="1">
          <mxGeometry x="170" y="-180" width="160" height="90" as="geometry" />
        </mxCell>
        <mxCell id="ISv67wAiZ98y2486Zf-K-23" value="&lt;p style=&quot;margin:0px;margin-top:4px;text-align:center;&quot;&gt;&lt;b&gt;Ansatte&lt;/b&gt;&lt;/p&gt;&lt;hr size=&quot;1&quot; style=&quot;border-style:solid;&quot;&gt;&lt;p style=&quot;margin:0px;margin-left:4px;&quot;&gt;Navn på ansatte&lt;/p&gt;&lt;p style=&quot;margin:0px;margin-left:4px;&quot;&gt;Telefon&lt;/p&gt;&lt;p style=&quot;margin:0px;margin-left:4px;&quot;&gt;Stilling&lt;/p&gt;&lt;p style=&quot;margin:0px;margin-left:4px;&quot;&gt;Mail&lt;/p&gt;&lt;p style=&quot;margin:0px;margin-left:4px;&quot;&gt;Lønn&lt;/p&gt;&lt;hr size=&quot;1&quot; style=&quot;border-style:solid;&quot;&gt;&lt;p style=&quot;margin:0px;margin-left:4px;&quot;&gt;Vedlikehold()&lt;/p&gt;&lt;p style=&quot;margin:0px;margin-left:4px;&quot;&gt;Endring i kart()&lt;/p&gt;&lt;p style=&quot;margin:0px;margin-left:4px;&quot;&gt;Sakstildeling()&lt;/p&gt;" style="verticalAlign=top;align=left;overflow=fill;html=1;whiteSpace=wrap;" vertex="1" parent="1">
          <mxGeometry x="600" y="200" width="160" height="160" as="geometry" />
        </mxCell>
        <mxCell id="ISv67wAiZ98y2486Zf-K-24" value="" style="endArrow=none;html=1;edgeStyle=orthogonalEdgeStyle;rounded=0;exitX=0.5;exitY=1;exitDx=0;exitDy=0;entryX=0.5;entryY=0;entryDx=0;entryDy=0;" edge="1" parent="1" source="ISv67wAiZ98y2486Zf-K-23" target="ISv67wAiZ98y2486Zf-K-19">
          <mxGeometry relative="1" as="geometry">
            <mxPoint x="390" y="370" as="sourcePoint" />
            <mxPoint x="550" y="370" as="targetPoint" />
          </mxGeometry>
        </mxCell>
        <mxCell id="ISv67wAiZ98y2486Zf-K-25" value="parent" style="edgeLabel;resizable=0;html=1;align=left;verticalAlign=bottom;" connectable="0" vertex="1" parent="ISv67wAiZ98y2486Zf-K-24">
          <mxGeometry x="-1" relative="1" as="geometry">
            <mxPoint y="20" as="offset" />
          </mxGeometry>
        </mxCell>
        <mxCell id="ISv67wAiZ98y2486Zf-K-26" value="child" style="edgeLabel;resizable=0;html=1;align=right;verticalAlign=bottom;" connectable="0" vertex="1" parent="ISv67wAiZ98y2486Zf-K-24">
          <mxGeometry x="1" relative="1" as="geometry" />
        </mxCell>
        <mxCell id="ISv67wAiZ98y2486Zf-K-27" value="" style="endArrow=block;startArrow=block;endFill=1;startFill=1;html=1;rounded=0;entryX=0;entryY=0.5;entryDx=0;entryDy=0;exitX=1.014;exitY=0.442;exitDx=0;exitDy=0;exitPerimeter=0;" edge="1" parent="1" source="ISv67wAiZ98y2486Zf-K-28" target="ISv67wAiZ98y2486Zf-K-23">
          <mxGeometry width="160" relative="1" as="geometry">
            <mxPoint x="470" y="280" as="sourcePoint" />
            <mxPoint x="490.0000000000002" y="180" as="targetPoint" />
          </mxGeometry>
        </mxCell>
        <mxCell id="ISv67wAiZ98y2486Zf-K-28" value="&lt;p style=&quot;margin:0px;margin-top:4px;text-align:center;&quot;&gt;&lt;b&gt;Sak&lt;/b&gt;&lt;/p&gt;&lt;hr size=&quot;1&quot; style=&quot;border-style:solid;&quot;&gt;&lt;p style=&quot;margin:0px;margin-left:4px;&quot;&gt;Navn&lt;/p&gt;&lt;p style=&quot;margin:0px;margin-left:4px;&quot;&gt;Lokasjon&lt;/p&gt;&lt;p style=&quot;margin:0px;margin-left:4px;&quot;&gt;Feil&lt;/p&gt;&lt;p style=&quot;margin:0px;margin-left:4px;&quot;&gt;Beskrivelse&lt;/p&gt;&lt;p style=&quot;margin:0px;margin-left:4px;&quot;&gt;Saksnummer&lt;/p&gt;&lt;p style=&quot;margin:0px;margin-left:4px;&quot;&gt;Dato&lt;/p&gt;&lt;hr size=&quot;1&quot; style=&quot;border-style:solid;&quot;&gt;&lt;p style=&quot;margin:0px;margin-left:4px;&quot;&gt;&lt;span style=&quot;background-color: initial;&quot;&gt;Oppdatere saksstatus()&lt;/span&gt;&lt;/p&gt;" style="verticalAlign=top;align=left;overflow=fill;html=1;whiteSpace=wrap;" vertex="1" parent="1">
          <mxGeometry x="280" y="200" width="160" height="180" as="geometry" />
        </mxCell>
        <mxCell id="ISv67wAiZ98y2486Zf-K-29" value="" style="edgeStyle=entityRelationEdgeStyle;fontSize=12;html=1;endArrow=ERzeroToMany;endFill=1;startArrow=ERzeroToMany;rounded=0;exitX=1;exitY=1;exitDx=0;exitDy=0;entryX=0;entryY=0;entryDx=0;entryDy=0;" edge="1" parent="1" source="ISv67wAiZ98y2486Zf-K-28" target="ISv67wAiZ98y2486Zf-K-19">
          <mxGeometry width="100" height="100" relative="1" as="geometry">
            <mxPoint x="450.0000000000001" y="278.3000000000002" as="sourcePoint" />
            <mxPoint x="530.64" y="530" as="targetPoint" />
            <Array as="points">
              <mxPoint x="460.64" y="340" />
              <mxPoint x="420.64" y="510" />
              <mxPoint x="510" y="490" />
              <mxPoint x="460.64" y="360" />
              <mxPoint x="460.64" y="330" />
              <mxPoint x="460.64" y="410" />
            </Array>
          </mxGeometry>
        </mxCell>
        <mxCell id="ISv67wAiZ98y2486Zf-K-32" value="" style="edgeStyle=entityRelationEdgeStyle;fontSize=12;html=1;endArrow=ERzeroToMany;startArrow=ERmandOne;rounded=0;verticalAlign=middle;jumpStyle=arc;entryX=0;entryY=0.5;entryDx=0;entryDy=0;exitX=1;exitY=0.5;exitDx=0;exitDy=0;" edge="1" parent="1" source="ISv67wAiZ98y2486Zf-K-18">
          <mxGeometry width="100" height="100" relative="1" as="geometry">
            <mxPoint x="160" y="549.9999999999995" as="sourcePoint" />
            <mxPoint x="280" y="360" as="targetPoint" />
            <Array as="points">
              <mxPoint x="180" y="620" />
              <mxPoint x="260" y="640" />
              <mxPoint x="190" y="570" />
              <mxPoint x="260" y="400" />
              <mxPoint x="260" y="490" />
              <mxPoint x="210" y="330" />
              <mxPoint x="210" y="340" />
              <mxPoint x="250" y="630" />
              <mxPoint x="80" y="630" />
              <mxPoint x="250" y="630" />
              <mxPoint x="328.08" y="630" />
              <mxPoint x="288.08" y="700" />
              <mxPoint x="398.08000000000004" y="670" />
              <mxPoint x="308.08" y="690" />
              <mxPoint x="328.08" y="700" />
              <mxPoint x="308.08" y="710" />
            </Array>
          </mxGeometry>
        </mxCell>
        <mxCell id="ISv67wAiZ98y2486Zf-K-33" value="&lt;p style=&quot;margin:0px;margin-top:4px;text-align:center;text-decoration:underline;&quot;&gt;&lt;b&gt;Object:Gunnar&lt;/b&gt;&lt;/p&gt;&lt;hr size=&quot;1&quot; style=&quot;border-style:solid;&quot;&gt;&lt;p style=&quot;margin:0px;margin-left:8px;&quot;&gt;Name = Gunnar&lt;br&gt;Mail = gunnar.lh@hei.no&lt;br&gt;Bruker Nummer = 12345&lt;/p&gt;&lt;p style=&quot;margin:0px;margin-left:8px;&quot;&gt;&lt;br&gt;&lt;/p&gt;&lt;p style=&quot;margin:0px;margin-left:8px;&quot;&gt;Innmelding(3)&lt;/p&gt;" style="verticalAlign=top;align=left;overflow=fill;html=1;whiteSpace=wrap;" vertex="1" parent="1">
          <mxGeometry x="-100" y="30" width="180" height="110" as="geometry" />
        </mxCell>
        <mxCell id="ISv67wAiZ98y2486Zf-K-35" value="" style="edgeStyle=none;orthogonalLoop=1;jettySize=auto;html=1;rounded=0;" edge="1" parent="1">
          <mxGeometry width="100" relative="1" as="geometry">
            <mxPoint x="200" y="-150" as="sourcePoint" />
            <mxPoint x="300" y="-150" as="targetPoint" />
            <Array as="points" />
          </mxGeometry>
        </mxCell>
        <mxCell id="ISv67wAiZ98y2486Zf-K-40" value="&lt;p style=&quot;margin:0px;margin-top:4px;text-align:center;&quot;&gt;&lt;b style=&quot;background-color: initial;&quot;&gt;Sender&lt;/b&gt;&lt;/p&gt;&lt;hr size=&quot;1&quot; style=&quot;border-style:solid;&quot;&gt;&lt;p style=&quot;margin:0px;margin-left:4px;&quot;&gt;Bruker Navn&lt;/p&gt;&lt;hr size=&quot;1&quot; style=&quot;border-style:solid;&quot;&gt;&lt;p style=&quot;margin:0px;margin-left:4px;&quot;&gt;Innmelding()&lt;/p&gt;&lt;p style=&quot;margin:0px;margin-left:4px;&quot;&gt;&lt;br&gt;&lt;/p&gt;" style="verticalAlign=top;align=left;overflow=fill;html=1;whiteSpace=wrap;" vertex="1" parent="1">
          <mxGeometry x="-100" y="190" width="160" height="120" as="geometry" />
        </mxCell>
        <mxCell id="ISv67wAiZ98y2486Zf-K-41" value="&lt;p style=&quot;margin:0px;margin-top:4px;text-align:center;&quot;&gt;&lt;b&gt;Anonym&lt;/b&gt;&lt;/p&gt;&lt;hr size=&quot;1&quot; style=&quot;border-style:solid;&quot;&gt;&lt;p style=&quot;margin:0px;margin-left:4px;&quot;&gt;&lt;br&gt;&lt;/p&gt;&lt;hr size=&quot;1&quot; style=&quot;border-style:solid;&quot;&gt;&lt;p style=&quot;margin:0px;margin-left:4px;&quot;&gt;Innmelding()&lt;/p&gt;&lt;p style=&quot;margin:0px;margin-left:4px;&quot;&gt;&lt;br&gt;&lt;/p&gt;" style="verticalAlign=top;align=left;overflow=fill;html=1;whiteSpace=wrap;" vertex="1" parent="1">
          <mxGeometry x="-220" y="420" width="160" height="120" as="geometry" />
        </mxCell>
        <mxCell id="ISv67wAiZ98y2486Zf-K-45" value="" style="endArrow=none;html=1;edgeStyle=orthogonalEdgeStyle;rounded=0;exitX=0.5;exitY=1;exitDx=0;exitDy=0;entryX=0.5;entryY=0;entryDx=0;entryDy=0;" edge="1" parent="1" source="ISv67wAiZ98y2486Zf-K-40" target="ISv67wAiZ98y2486Zf-K-41">
          <mxGeometry relative="1" as="geometry">
            <mxPoint x="-190" y="360" as="sourcePoint" />
            <mxPoint x="-30" y="360" as="targetPoint" />
            <Array as="points">
              <mxPoint x="-20" y="360" />
              <mxPoint x="-140" y="360" />
            </Array>
          </mxGeometry>
        </mxCell>
        <mxCell id="ISv67wAiZ98y2486Zf-K-46" value="parent" style="edgeLabel;resizable=0;html=1;align=left;verticalAlign=bottom;" connectable="0" vertex="1" parent="ISv67wAiZ98y2486Zf-K-45">
          <mxGeometry x="-1" relative="1" as="geometry">
            <mxPoint x="-40" y="20" as="offset" />
          </mxGeometry>
        </mxCell>
        <mxCell id="ISv67wAiZ98y2486Zf-K-47" value="child" style="edgeLabel;resizable=0;html=1;align=right;verticalAlign=bottom;" connectable="0" vertex="1" parent="ISv67wAiZ98y2486Zf-K-45">
          <mxGeometry x="1" relative="1" as="geometry" />
        </mxCell>
        <mxCell id="ISv67wAiZ98y2486Zf-K-48" value="" style="endArrow=none;html=1;edgeStyle=orthogonalEdgeStyle;rounded=0;entryX=0.5;entryY=0;entryDx=0;entryDy=0;exitX=0.625;exitY=1;exitDx=0;exitDy=0;exitPerimeter=0;" edge="1" parent="1" source="ISv67wAiZ98y2486Zf-K-40" target="ISv67wAiZ98y2486Zf-K-18">
          <mxGeometry relative="1" as="geometry">
            <mxPoint x="-25" y="370" as="sourcePoint" />
            <mxPoint x="115" y="420" as="targetPoint" />
          </mxGeometry>
        </mxCell>
        <mxCell id="ISv67wAiZ98y2486Zf-K-49" value="parent" style="edgeLabel;resizable=0;html=1;align=left;verticalAlign=bottom;" connectable="0" vertex="1" parent="ISv67wAiZ98y2486Zf-K-48">
          <mxGeometry x="-1" relative="1" as="geometry">
            <mxPoint y="20" as="offset" />
          </mxGeometry>
        </mxCell>
        <mxCell id="ISv67wAiZ98y2486Zf-K-50" value="child" style="edgeLabel;resizable=0;html=1;align=right;verticalAlign=bottom;" connectable="0" vertex="1" parent="ISv67wAiZ98y2486Zf-K-48">
          <mxGeometry x="1" relative="1" as="geometry" />
        </mxCell>
        <mxCell id="ISv67wAiZ98y2486Zf-K-51" value="" style="edgeStyle=entityRelationEdgeStyle;fontSize=12;html=1;endArrow=ERzeroToMany;startArrow=ERmandOne;rounded=0;verticalAlign=middle;jumpStyle=arc;entryX=0;entryY=0.75;entryDx=0;entryDy=0;exitX=1;exitY=0;exitDx=0;exitDy=0;" edge="1" parent="1" source="ISv67wAiZ98y2486Zf-K-41" target="ISv67wAiZ98y2486Zf-K-28">
          <mxGeometry width="100" height="100" relative="1" as="geometry">
            <mxPoint x="80" y="390" as="sourcePoint" />
            <mxPoint x="200" y="270" as="targetPoint" />
            <Array as="points">
              <mxPoint x="100" y="530" />
              <mxPoint x="20" y="190" />
              <mxPoint x="70" y="250" />
              <mxPoint x="180" y="550" />
              <mxPoint x="110" y="480" />
              <mxPoint x="180" y="310" />
              <mxPoint x="180" y="400" />
              <mxPoint x="130" y="240" />
              <mxPoint x="130" y="250" />
              <mxPoint x="170" y="540" />
              <mxPoint y="540" />
              <mxPoint x="170" y="540" />
              <mxPoint x="248.07999999999998" y="540" />
              <mxPoint x="208.07999999999998" y="610" />
              <mxPoint x="318.08000000000004" y="580" />
              <mxPoint x="228.07999999999998" y="600" />
              <mxPoint x="248.07999999999998" y="610" />
              <mxPoint x="228.07999999999998" y="620" />
            </Array>
          </mxGeometry>
        </mxCell>
        <mxCell id="ISv67wAiZ98y2486Zf-K-52" value="" style="endArrow=open;endFill=1;endSize=12;html=1;rounded=0;entryX=0;entryY=0.25;entryDx=0;entryDy=0;" edge="1" parent="1" target="ISv67wAiZ98y2486Zf-K-28">
          <mxGeometry width="160" relative="1" as="geometry">
            <mxPoint x="60" y="249.44" as="sourcePoint" />
            <mxPoint x="220" y="249.44" as="targetPoint" />
            <Array as="points">
              <mxPoint x="140" y="249.44" />
            </Array>
          </mxGeometry>
        </mxCell>
      </root>
    </mxGraphModel>
  </diagram>
</mxfile>
